<svg viewBox="0 0 1500 1500" xmlns="http://www.w3.org/2000/svg" version="1.1">
<rect x="10" y="10" width="425.1968503937008" height="425.1968503937008" fill="none" stroke-width="2"  stroke="black"  rx="0" ry="0" />
<rect x="10" y="10" width="15.874015748031498" height="11.716535433070867" fill="none" stroke-width="2"  stroke="black"  rx="0" ry="0" />
<rect x="10" y="36.07874015748032" width="15.874015748031498" height="11.716535433070867" fill="none" stroke-width="2"  stroke="black"  rx="0" ry="0" />
<rect x="419.3228346456693" y="10" width="15.874015748031498" height="11.716535433070867" fill="none" stroke-width="2"  stroke="black"  rx="0" ry="0" />
<rect x="419.3228346456693" y="36.07874015748032" width="15.874015748031498" height="11.716535433070867" fill="none" stroke-width="2"  stroke="black"  rx="0" ry="0" />
<text x="222.5984251968504" y="222.5984251968504" dominant-baseline="middle" text-anchor="middle" font-size="21.25984251968504">AS and SA</text>

<rect x="450.3149606299213" y="10" width="425.1968503937008" height="425.1968503937008" fill="none" stroke-width="2"  stroke="black"  rx="18.897637795275593" ry="18.897637795275593" />
<circle cx="535.3543307086615" cy="28.897637795275593" fill="none" stroke="black" stroke-width="3" r="9.448818897637796"/>
<circle cx="790.472440944882" cy="28.897637795275593" fill="none" stroke="black" stroke-width="3" r="9.448818897637796"/>
<circle cx="535.3543307086615" cy="416.2992125984252" fill="none" stroke="black" stroke-width="3" r="9.448818897637796"/>
<circle cx="790.472440944882" cy="416.2992125984252" fill="none" stroke="black" stroke-width="3" r="9.448818897637796"/>
<circle cx="469.2125984251969" cy="95.03937007874016" fill="none" stroke="black" stroke-width="3" r="9.448818897637796"/>
<circle cx="856.6141732283465" cy="95.03937007874016" fill="none" stroke="black" stroke-width="3" r="9.448818897637796"/>
<circle cx="469.2125984251969" cy="350.15748031496065" fill="none" stroke="black" stroke-width="3" r="9.448818897637796"/>
<circle cx="856.6141732283465" cy="350.15748031496065" fill="none" stroke="black" stroke-width="3" r="9.448818897637796"/>

<rect x="10" y="450.3149606299213" width="425.1968503937008" height="394.96062992125985" fill="none" stroke-width="2"  stroke="black"  rx="18.897637795275593" ry="18.897637795275593" />
<rect x="89.84251968503938" y="802.7559055118111" width="10.393700787401576" height="42.51968503937008" fill="none" stroke-width="2"  stroke="black"  rx="0" ry="0" />
<rect x="83.70078740157481" y="826.6141732283464" width="22.677165354330707" height="7.559055118110237" fill="none" stroke-width="2"  stroke="black"  rx="0" ry="0" />
<rect x="344.96062992125985" y="802.7559055118111" width="10.393700787401576" height="42.51968503937008" fill="none" stroke-width="2"  stroke="black"  rx="0" ry="0" />
<rect x="338.8188976377953" y="826.6141732283464" width="22.677165354330707" height="7.559055118110237" fill="none" stroke-width="2"  stroke="black"  rx="0" ry="0" />
<rect x="28.897637795275593" y="450.3149606299213" width="15.874015748031498" height="197.48031496062993" fill="none" stroke-width="2"  stroke="black"  rx="0" ry="0" />
<rect x="400.42519685039366" y="450.3149606299213" width="15.874015748031498" height="197.48031496062993" fill="none" stroke-width="2"  stroke="black"  rx="0" ry="0" />

<rect x="450.3149606299213" y="450.3149606299213" width="425.1968503937008" height="394.96062992125985" fill="none" stroke-width="2"  stroke="black"  rx="18.897637795275593" ry="18.897637795275593" />
<rect x="530.1574803149607" y="802.7559055118111" width="10.393700787401576" height="42.51968503937008" fill="none" stroke-width="2"  stroke="black"  rx="0" ry="0" />
<rect x="524.0157480314961" y="826.6141732283464" width="22.677165354330707" height="7.559055118110237" fill="none" stroke-width="2"  stroke="black"  rx="0" ry="0" />
<rect x="785.2755905511813" y="802.7559055118111" width="10.393700787401576" height="42.51968503937008" fill="none" stroke-width="2"  stroke="black"  rx="0" ry="0" />
<rect x="779.1338582677166" y="826.6141732283464" width="22.677165354330707" height="7.559055118110237" fill="none" stroke-width="2"  stroke="black"  rx="0" ry="0" />
<rect x="469.2125984251969" y="450.3149606299213" width="15.874015748031498" height="197.48031496062993" fill="none" stroke-width="2"  stroke="black"  rx="0" ry="0" />
<rect x="840.740157480315" y="450.3149606299213" width="15.874015748031498" height="197.48031496062993" fill="none" stroke-width="2"  stroke="black"  rx="0" ry="0" />
<g
 id="layer1"
 transform="translate(100.3149606299213 200.3149606299213)
			scale(3.5 3.5)">
<path
   d="m 139.35231,105.92711 c -0.0158,0.53928 -0.006,1.04271 0.0218,1.11874"
   style="fill:none;stroke:#000000;stroke-width:0.238125;stroke-linecap:round"
   id="path51" />
<path
   d="m 139.37413,107.04587 c 0.0418,0.11416 2.23159,0.13363 12.56708,0.11183"
   style="fill:none;stroke:#000000;stroke-width:0.238125;stroke-linecap:round"
   id="path53" />
<path
   d="m 137.65445,90.974297 c 0.20898,-0.73864 0.89093,-1.462278 1.63376,-1.733646"
   style="fill:none;stroke:#000000;stroke-width:0.238125;stroke-linecap:round"
   id="path55" />
<path
   d="m 138.45542,87.624313 c -1.13204,0.479209 -2.12703,1.589372 -2.50322,2.792958"
   style="fill:none;stroke:#000000;stroke-width:0.238125;stroke-linecap:round"
   id="path57" />
<path
   d="m 140.62051,87.383875 c -1.44206,-0.0041 -1.63841,0.0175 -2.16509,0.240438"
   style="fill:none;stroke:#000000;stroke-width:0.238125;stroke-linecap:round"
   id="path59" />
<path
   d="m 139.28821,89.240651 c 0.36292,-0.132575 0.90764,-0.201295 1.50406,-0.207903"
   style="fill:none;stroke:#000000;stroke-width:0.238125;stroke-linecap:round"
   id="path61" />
<path
   d="m 155.85582,91.076092 c 0.95776,-0.483638 3.45538,-1.399366 5.02408,-1.842023"
   style="fill:none;stroke:#000000;stroke-width:0.238125;stroke-linecap:round"
   id="path63" />
<path
   d="m 154.38725,93.918391 c 0.27606,-0.718714 0.45878,-1.375211 0.48977,-1.759697"
   style="fill:none;stroke:#000000;stroke-width:0.238125;stroke-linecap:round"
   id="path65" />
<path
   d="m 149.01893,92.17726 c 0.0332,0.384283 0.21969,1.039612 0.49989,1.756554"
   style="fill:none;stroke:#000000;stroke-width:0.238125;stroke-linecap:round"
   id="path67" />
<path
   d="m 142.99933,89.290735 c 1.57121,0.432714 4.07407,1.332587 5.03458,1.810143"
   style="fill:none;stroke:#000000;stroke-width:0.238125;stroke-linecap:round"
   id="path69" />
<path
   d="m 142.48894,89.174636 c 0.17792,0.03301 0.3493,0.07173 0.51039,0.116099"
   style="fill:none;stroke:#000000;stroke-width:0.238125;stroke-linecap:round"
   id="path71" />
<path
   d="m 141.83734,89.081547 c 0.22219,0.02303 0.44146,0.05406 0.6516,0.09309"
   style="fill:none;stroke:#000000;stroke-width:0.238125;stroke-linecap:round"
   id="path73" />
<path
   d="m 142.54698,87.507592 c -0.11273,-0.02036 -0.22243,-0.03738 -0.33175,-0.05159"
   style="fill:none;stroke:#000000;stroke-width:0.238125;stroke-linecap:round"
   id="path75" />
<path
   d="m 145.92329,88.508531 c -1.76077,-0.586636 -2.63405,-0.866799 -3.37631,-1.000939"
   style="fill:none;stroke:#000000;stroke-width:0.238125;stroke-linecap:round"
   id="path77" />
<path
   d="m 149.7605,89.615789 c -0.32443,0 -1.73877,-0.408118 -3.83721,-1.107258"
   style="fill:none;stroke:#000000;stroke-width:0.238125;stroke-linecap:round"
   id="path79" />
<path
   d="m 150.32883,89.205246 c -0.21008,0.225786 -0.46583,0.410543 -0.56833,0.410543"
   style="fill:none;stroke:#000000;stroke-width:0.238125;stroke-linecap:round"
   id="path81" />
<path
   d="m 149.74241,86.546877 c -3.8e-4,0.908363 0.10913,1.220672 0.65796,1.876724"
   style="fill:none;stroke:#000000;stroke-width:0.238125;stroke-linecap:round"
   id="path83" />
<path
   d="m 150.72715,84.344655 c -0.78159,0.719463 -0.98433,1.172863 -0.98474,2.202222"
   style="fill:none;stroke:#000000;stroke-width:0.238125;stroke-linecap:round"
   id="path85" />
<path
   d="m 149.68729,82.06677 c 0.092,0.253806 0.13311,0.266844 0.84251,0.266844"
   style="fill:none;stroke:#000000;stroke-width:0.238125;stroke-linecap:round"
   id="path87" />
<path
   d="m 149.65206,80.699297 c -0.0906,0.354528 -0.0721,1.071175 0.0353,1.367473"
   style="fill:none;stroke:#000000;stroke-width:0.238125;stroke-linecap:round"
   id="path89" />
<path
   d="m 150.46844,80.439225 c -0.68586,0.02733 -0.76321,0.05193 -0.81638,0.260072"
   style="fill:none;stroke:#000000;stroke-width:0.238125;stroke-linecap:round"
   id="path91" />
<path
   d="m 154.17785,80.684953 c -0.0543,-0.207767 -0.13185,-0.231917 -0.81786,-0.254892"
   style="fill:none;stroke:#000000;stroke-width:0.238125;stroke-linecap:round"
   id="path93" />
<path
   d="m 154.15048,82.052616 c 0.10563,-0.296966 0.11996,-1.013717 0.0274,-1.367663"
   style="fill:none;stroke:#000000;stroke-width:0.238125;stroke-linecap:round"
   id="path95" />
<path
   d="m 153.30954,82.324805 c 0.70939,-0.0047 0.75046,-0.01784 0.84094,-0.272189"
   style="fill:none;stroke:#000000;stroke-width:0.238125;stroke-linecap:round"
   id="path97" />
<path
   d="m 154.12115,86.532997 c -0.006,-1.029338 -0.21168,-1.481445 -0.99739,-2.195935"
   style="fill:none;stroke:#000000;stroke-width:0.238125;stroke-linecap:round"
   id="path99" />
<path
   d="m 153.474,88.413856 c 0.54505,-0.659517 0.65274,-0.972509 0.64715,-1.880859"
   style="fill:none;stroke:#000000;stroke-width:0.238125;stroke-linecap:round"
   id="path101" />
<path
   d="m 154.12073,89.601965 c -0.10255,6.82e-4 -0.35933,-0.182476 -0.5707,-0.406936"
   style="fill:none;stroke:#000000;stroke-width:0.238125;stroke-linecap:round"
   id="path103" />
<path
   d="m 157.95149,88.470406 c -2.09438,0.712432 -3.50633,1.129501 -3.83076,1.131559"
   style="fill:none;stroke:#000000;stroke-width:0.238125;stroke-linecap:round"
   id="path105" />
<path
   d="m 161.32197,87.448091 c -0.74146,0.138834 -1.61313,0.424534 -3.37048,1.022315"
   style="fill:none;stroke:#000000;stroke-width:0.238125;stroke-linecap:round"
   id="path107" />
<path
   d="m 161.65342,87.39442 c -0.10924,0.0149 -0.21884,0.03259 -0.33145,0.05364"
   style="fill:none;stroke:#000000;stroke-width:0.238125;stroke-linecap:round"
   id="path109" />
<path
   d="m 161.38961,89.114733 c 0.20992,-0.04032 0.429,-0.07278 0.65105,-0.09722"
   style="fill:none;stroke:#000000;stroke-width:0.238125;stroke-linecap:round"
   id="path111" />
<path
   d="m 160.8799,89.234069 c 0.16083,-0.04538 0.33197,-0.08519 0.50971,-0.119336"
   style="fill:none;stroke:#000000;stroke-width:0.238125;stroke-linecap:round"
   id="path113" />
<path
   d="m 144.33032,102.36344 c -0.39569,0.21478 -0.7592,0.18823 -1.33099,-0.0973"
   style="fill:none;stroke:#000000;stroke-width:0.238125;stroke-linecap:round"
   id="path115" />
<path
   d="m 144.67231,102.04284 c -0.0339,0.0927 -0.18776,0.2369 -0.34199,0.3206"
   style="fill:none;stroke:#000000;stroke-width:0.238125;stroke-linecap:round"
   id="path117" />
<path
   d="m 144.56027,100.43502 c 0.17075,0.35873 0.23446,1.27302 0.11204,1.60782"
   style="fill:none;stroke:#000000;stroke-width:0.238125;stroke-linecap:round"
   id="path119" />
<path
   d="m 142.35806,99.855585 c 0.0582,0.06102 0.53839,0.134416 1.06729,0.163115"
   style="fill:none;stroke:#000000;stroke-width:0.238125;stroke-linecap:round"
   id="path121" />
<path
   d="m 142.10219,98.377067 c -0.0915,0.09605 0.12373,1.339832 0.25587,1.478518"
   style="fill:none;stroke:#000000;stroke-width:0.238125;stroke-linecap:round"
   id="path123" />
<path
   d="m 143.15441,98.338648 c -0.54163,-0.01784 -1.01512,-3.96e-4 -1.05222,0.03841"
   style="fill:none;stroke:#000000;stroke-width:0.238125;stroke-linecap:round"
   id="path125" />
<path
   d="m 144.13918,98.326977 c 0,0.02419 -0.44315,0.02946 -0.98477,0.01169"
   style="fill:none;stroke:#000000;stroke-width:0.238125;stroke-linecap:round"
   id="path127" />
<path
   d="m 143.74271,96.81829 c 0,0.140345 0.0892,0.527298 0.19822,0.859905"
   style="fill:none;stroke:#000000;stroke-width:0.238125;stroke-linecap:round"
   id="path129" />
<path
   d="m 144.47941,96.60218 c -0.72606,-0.03848 -0.7367,-0.03532 -0.7367,0.21611"
   style="fill:none;stroke:#000000;stroke-width:0.238125;stroke-linecap:round"
   id="path131" />
<path
   d="m 145.27994,96.708199 c -0.0352,-0.03683 -0.39533,-0.08454 -0.80053,-0.106019"
   style="fill:none;stroke:#000000;stroke-width:0.238125;stroke-linecap:round"
   id="path133" />
<path
   d="m 145.52164,97.501036 c -0.0979,-0.399214 -0.20661,-0.756003 -0.2417,-0.792837"
   style="fill:none;stroke:#000000;stroke-width:0.238125;stroke-linecap:round"
   id="path135" />
<path
   d="m 145.76771,98.34266 c -0.0374,-0.06369 -0.14821,-0.442403 -0.24607,-0.841624"
   style="fill:none;stroke:#000000;stroke-width:0.238125;stroke-linecap:round"
   id="path137" />
<path
   d="m 146.62069,98.45843 c -0.46933,0 -0.81221,-0.04654 -0.85298,-0.11577"
   style="fill:none;stroke:#000000;stroke-width:0.238125;stroke-linecap:round"
   id="path139" />
<path
   d="m 147.56282,98.710452 c -0.14456,-0.231549 -0.22109,-0.252022 -0.94213,-0.252022"
   style="fill:none;stroke:#000000;stroke-width:0.238125;stroke-linecap:round"
   id="path141" />
<path
   d="m 142.99933,102.2662 c -1.20445,-0.60129 -3.01697,-3.194715 -4.55162,-6.512573"
   style="fill:none;stroke:#000000;stroke-width:0.238125;stroke-linecap:round"
   id="path143" />
<path
   d="m 148.2461,102.51565 c -0.84427,0 -1.98203,-1.07299 -2.09773,-1.97833"
   style="fill:none;stroke:#000000;stroke-width:0.238125;stroke-linecap:round"
   id="path145" />
<path
   d="m 150.44086,99.597403 c -0.35131,1.768427 -1.21607,2.918247 -2.19476,2.918247"
   style="fill:none;stroke:#000000;stroke-width:0.238125;stroke-linecap:round"
   id="path147" />
<path
   d="m 150.33013,96.708199 c 0.21484,1.121684 0.26021,2.13672 0.11073,2.889204"
   style="fill:none;stroke:#000000;stroke-width:0.238125;stroke-linecap:round"
   id="path149" />
<path
   d="m 153.49781,99.587714 c -0.15528,-0.758656 -0.11351,-1.78613 0.10002,-2.921857"
   style="fill:none;stroke:#000000;stroke-width:0.238125;stroke-linecap:round"
   id="path151" />
<path
   d="m 155.70931,102.49199 c -0.97868,0.006 -1.85002,-1.13811 -2.2115,-2.904276"
   style="fill:none;stroke:#000000;stroke-width:0.238125;stroke-linecap:round"
   id="path153" />
<path
   d="m 157.79562,100.50041 c -0.11048,0.90604 -1.24205,1.98622 -2.08631,1.99158"
   style="fill:none;stroke:#000000;stroke-width:0.238125;stroke-linecap:round"
   id="path155" />
<path
   d="m 156.37069,98.682536 c -0.0857,0.139155 -0.18004,0.514273 -0.20959,0.833596"
   style="fill:none;stroke:#000000;stroke-width:0.238125;stroke-linecap:round"
   id="path157" />
<path
   d="m 157.31136,98.424548 c -0.72103,0.0047 -0.79744,0.02549 -0.94067,0.257988"
   style="fill:none;stroke:#000000;stroke-width:0.238125;stroke-linecap:round"
   id="path159" />
<path
   d="m 158.16364,98.303379 c -0.0403,0.06948 -0.38296,0.118196 -0.85228,0.121169"
   style="fill:none;stroke:#000000;stroke-width:0.238125;stroke-linecap:round"
   id="path161" />
<path
   d="m 158.40487,97.46021 c -0.0955,0.39983 -0.20408,0.77926 -0.24123,0.843169"
   style="fill:none;stroke:#000000;stroke-width:0.238125;stroke-linecap:round"
   id="path163" />
<path
   d="m 158.64201,96.665857 c -0.0349,0.03704 -0.14161,0.394519 -0.23714,0.794353"
   style="fill:none;stroke:#000000;stroke-width:0.238125;stroke-linecap:round"
   id="path165" />
<path
   d="m 159.4419,96.554761 c -0.40506,0.02399 -0.76502,0.07403 -0.79989,0.111096"
   style="fill:none;stroke:#000000;stroke-width:0.238125;stroke-linecap:round"
   id="path167" />
<path
   d="m 160.17985,96.766197 c -0.002,-0.251469 -0.0121,-0.25453 -0.73795,-0.211436"
   style="fill:none;stroke:#000000;stroke-width:0.238125;stroke-linecap:round"
   id="path169" />
<path
   d="m 159.98657,97.627344 c 0.10711,-0.333289 0.19409,-0.720802 0.19328,-0.861147"
   style="fill:none;stroke:#000000;stroke-width:0.238125;stroke-linecap:round"
   id="path171" />
<path
   d="m 159.79207,98.277363 c -1.1e-4,-0.02419 0.0874,-0.31673 0.1945,-0.650019"
   style="fill:none;stroke:#000000;stroke-width:0.238125;stroke-linecap:round"
   id="path173" />
<path
   d="m 160.77688,98.282796 c -0.54151,0.02126 -0.98469,0.0188 -0.98481,-0.0054"
   style="fill:none;stroke:#000000;stroke-width:0.238125;stroke-linecap:round"
   id="path175" />
<path
   d="m 161.8293,98.314546 c -0.0373,-0.03868 -0.51091,-0.05297 -1.05242,-0.03171"
   style="fill:none;stroke:#000000;stroke-width:0.238125;stroke-linecap:round"
   id="path177" />
<path
   d="m 161.58194,99.794666 c 0.13136,-0.139524 0.33942,-1.384653 0.24736,-1.48012"
   style="fill:none;stroke:#000000;stroke-width:0.238125;stroke-linecap:round"
   id="path179" />
<path
   d="m 160.51561,99.964537 c 0.52872,-0.03215 1.00857,-0.108502 1.06633,-0.169871"
   style="fill:none;stroke:#000000;stroke-width:0.238125;stroke-linecap:round"
   id="path181" />
<path
   d="m 143.94093,97.678195 c 0.10904,0.332611 0.19825,0.624562 0.19825,0.648782"
   style="fill:none;stroke:#000000;stroke-width:0.238125;stroke-linecap:round"
   id="path183" />
<path
   d="m 159.28032,101.99654 c -0.12434,-0.33401 -0.0659,-1.24869 0.10276,-1.60848"
   style="fill:none;stroke:#000000;stroke-width:0.238125;stroke-linecap:round"
   id="path185" />
<path
   d="m 159.62414,102.31498 c -0.15472,-0.0827 -0.30943,-0.22602 -0.34382,-0.31844"
   style="fill:none;stroke:#000000;stroke-width:0.238125;stroke-linecap:round"
   id="path187" />
<path
   d="m 160.95456,102.20929 c -0.57015,0.28909 -0.93348,0.31794 -1.33042,0.10569"
   style="fill:none;stroke:#000000;stroke-width:0.238125;stroke-linecap:round"
   id="path189" />
<path
   d="m 165.46861,95.667986 c -1.51553,3.327521 -3.31309,5.932394 -4.51405,6.541304"
   style="fill:none;stroke:#000000;stroke-width:0.238125;stroke-linecap:round"
   id="path191" />
<path
   d="m 165.99244,94.343778 c -0.13883,0.421108 -0.3134,0.862179 -0.52383,1.324208"
   style="fill:none;stroke:#000000;stroke-width:0.238125;stroke-linecap:round"
   id="path193" />
<path
   d="m 165.82227,98.994797 c 1.54627,-3.166779 1.67367,-3.453275 1.99506,-4.486066"
   style="fill:none;stroke:#000000;stroke-width:0.238125;stroke-linecap:round"
   id="path195" />
<path
   d="m 147.77721,99.542695 c -0.0315,-0.319117 -0.12786,-0.693627 -0.21439,-0.832243"
   style="fill:none;stroke:#000000;stroke-width:0.238125;stroke-linecap:round"
   id="path197" />
<path
   d="m 138.1132,99.082617 c 1.08145,2.182253 1.46114,3.304703 1.53961,4.551373"
   style="fill:none;stroke:#000000;stroke-width:0.238125;stroke-linecap:round"
   id="path199" />
<path
   d="m 136.09236,94.609276 c 0.32734,1.03074 0.45639,1.316418 2.02084,4.473341"
   style="fill:none;stroke:#000000;stroke-width:0.238125;stroke-linecap:round"
   id="path201" />
<path
   d="m 138.44771,95.753627 c -0.21307,-0.46069 -0.39017,-0.900646 -0.53144,-1.320867"
   style="fill:none;stroke:#000000;stroke-width:0.238125;stroke-linecap:round"
   id="path203" />
<path
   d="m 164.30887,103.55584 c 0.0713,-1.24715 0.44454,-2.37197 1.5134,-4.561043"
   style="fill:none;stroke:#000000;stroke-width:0.238125;stroke-linecap:round"
   id="path205" />
<path
   d="m 165.41414,87.538871 c -0.52796,-0.21961 -0.72443,-0.240172 -2.16644,-0.22671"
   style="fill:none;stroke:#000000;stroke-width:0.238125;stroke-linecap:round"
   id="path207" />
<path
   d="m 167.93338,90.315913 c -0.3831,-1.201173 -1.38447,-2.305008 -2.51924,-2.777042"
   style="fill:none;stroke:#000000;stroke-width:0.238125;stroke-linecap:round"
   id="path209" />
<path
   d="m 164.59067,89.160464 c 0.74438,0.266652 1.43047,0.985952 1.64371,1.723251"
   style="fill:none;stroke:#000000;stroke-width:0.238125;stroke-linecap:round"
   id="path211" />
<path
   d="m 163.08543,88.962094 c 0.59645,0.0028 1.14154,0.06807 1.50524,0.19837"
   style="fill:none;stroke:#000000;stroke-width:0.238125;stroke-linecap:round"
   id="path213" />
<path
   d="m 139.38103,104.94663 -0.0287,0.98048"
   style="fill:none;stroke:#000000;stroke-width:0.238125;stroke-linecap:round"
   id="path215" />
<path
   d="m 164.51402,104.89382 -25.13299,0.0528"
   style="fill:none;stroke:#000000;stroke-width:0.238125;stroke-linecap:round"
   id="path217" />
<path
   d="m 164.45774,107.13129 0.0563,-2.23747"
   style="fill:none;stroke:#000000;stroke-width:0.238125;stroke-linecap:round"
   id="path219" />
<path
   d="m 151.94121,107.1577 12.51653,-0.0264"
   style="fill:none;stroke:#000000;stroke-width:0.238125;stroke-linecap:round"
   id="path221" />
<path
   d="m 135.9522,90.417271 1.70225,0.557026"
   style="fill:none;stroke:#000000;stroke-width:0.238125;stroke-linecap:round"
   id="path223" />
<path
   d="m 140.79227,89.032748 -0.17176,-1.648873"
   style="fill:none;stroke:#000000;stroke-width:0.238125;stroke-linecap:round"
   id="path225" />
<path
   d="m 154.92644,91.545399 0.92938,-0.469307"
   style="fill:none;stroke:#000000;stroke-width:0.238125;stroke-linecap:round"
   id="path227" />
<path
   d="m 154.87702,92.158694 0.0494,-0.613295"
   style="fill:none;stroke:#000000;stroke-width:0.238125;stroke-linecap:round"
   id="path229" />
<path
   d="m 149.51882,93.933814 4.86843,-0.01538"
   style="fill:none;stroke:#000000;stroke-width:0.238125;stroke-linecap:round"
   id="path231" />
<path
   d="m 148.96597,91.564288 0.053,0.612972"
   style="fill:none;stroke:#000000;stroke-width:0.238125;stroke-linecap:round"
   id="path233" />
<path
   d="m 148.03391,91.100878 0.93206,0.46341"
   style="fill:none;stroke:#000000;stroke-width:0.238125;stroke-linecap:round"
   id="path235" />
<path
   d="m 142.21523,87.456025 -0.37789,1.625522"
   style="fill:none;stroke:#000000;stroke-width:0.238125;stroke-linecap:round"
   id="path237" />
<path
   d="m 150.71079,88.794688 -0.38196,0.410558"
   style="fill:none;stroke:#000000;stroke-width:0.238125;stroke-linecap:round"
   id="path239" />
<path
   d="m 150.40037,88.423601 0.31042,0.371087"
   style="fill:none;stroke:#000000;stroke-width:0.238125;stroke-linecap:round"
   id="path241" />
<path
   d="m 151.27314,83.842061 -0.54599,0.502594"
   style="fill:none;stroke:#000000;stroke-width:0.238125;stroke-linecap:round"
   id="path243" />
<path
   d="m 151.27563,82.333614 -0.002,1.508447"
   style="fill:none;stroke:#000000;stroke-width:0.238125;stroke-linecap:round"
   id="path245" />
<path
   d="m 150.5298,82.333614 h 0.74583"
   style="fill:none;stroke:#000000;stroke-width:0.238125;stroke-linecap:round"
   id="path247" />
<path
   d="m 151.22607,80.409033 -0.75763,0.03021"
   style="fill:none;stroke:#000000;stroke-width:0.238125;stroke-linecap:round"
   id="path249" />
<path
   d="m 151.32519,78.848569 -0.0992,1.560464"
   style="fill:none;stroke:#000000;stroke-width:0.238125;stroke-linecap:round"
   id="path251" />
<path
   d="m 151.90956,78.816921 -0.58437,0.03164"
   style="fill:none;stroke:#000000;stroke-width:0.238125;stroke-linecap:round"
   id="path253" />
<path
   d="m 152.49411,78.844864 -0.58455,-0.02795"
   style="fill:none;stroke:#000000;stroke-width:0.238125;stroke-linecap:round"
   id="path255" />
<path
   d="m 152.6022,80.404674 -0.10809,-1.55981"
   style="fill:none;stroke:#000000;stroke-width:0.238125;stroke-linecap:round"
   id="path257" />
<path
   d="m 153.35999,80.430061 -0.75779,-0.02542"
   style="fill:none;stroke:#000000;stroke-width:0.238125;stroke-linecap:round"
   id="path259" />
<path
   d="m 152.56371,82.329535 0.74583,-0.0047"
   style="fill:none;stroke:#000000;stroke-width:0.238125;stroke-linecap:round"
   id="path261" />
<path
   d="m 152.57489,83.837933 -0.0112,-1.508398"
   style="fill:none;stroke:#000000;stroke-width:0.238125;stroke-linecap:round"
   id="path263" />
<path
   d="m 153.12376,84.337062 -0.54887,-0.499129"
   style="fill:none;stroke:#000000;stroke-width:0.238125;stroke-linecap:round"
   id="path265" />
<path
   d="M 153.16573,88.786903 153.474,88.413856"
   style="fill:none;stroke:#000000;stroke-width:0.238125;stroke-linecap:round"
   id="path267" />
<path
   d="m 153.55003,89.195029 -0.3843,-0.408126"
   style="fill:none;stroke:#000000;stroke-width:0.238125;stroke-linecap:round"
   id="path269" />
<path
   d="M 162.04066,89.017515 161.65342,87.39442"
   style="fill:none;stroke:#000000;stroke-width:0.238125;stroke-linecap:round"
   id="path271" />
<path
   d="m 144.38697,100.07091 0.1733,0.36411"
   style="fill:none;stroke:#000000;stroke-width:0.238125;stroke-linecap:round"
   id="path273" />
<path
   d="m 143.42535,100.0187 0.96162,0.0522"
   style="fill:none;stroke:#000000;stroke-width:0.238125;stroke-linecap:round"
   id="path275" />
<path
   d="m 147.83425,100.12294 -0.0571,-0.580245"
   style="fill:none;stroke:#000000;stroke-width:0.238125;stroke-linecap:round"
   id="path277" />
<path
   d="m 146.09543,100.12294 h 1.73882"
   style="fill:none;stroke:#000000;stroke-width:0.238125;stroke-linecap:round"
   id="path279" />
<path
   d="m 146.14837,100.53732 -0.053,-0.41438"
   style="fill:none;stroke:#000000;stroke-width:0.238125;stroke-linecap:round"
   id="path281" />
<path
   d="m 153.5979,96.665857 -3.26777,0.04237"
   style="fill:none;stroke:#000000;stroke-width:0.238125;stroke-linecap:round"
   id="path283" />
<path
   d="m 157.84619,100.08569 -0.0506,0.41472"
   style="fill:none;stroke:#000000;stroke-width:0.238125;stroke-linecap:round"
   id="path285" />
<path
   d="m 156.1074,100.09671 1.73879,-0.011"
   style="fill:none;stroke:#000000;stroke-width:0.238125;stroke-linecap:round"
   id="path287" />
<path
   d="m 156.1611,99.516132 -0.0537,0.580578"
   style="fill:none;stroke:#000000;stroke-width:0.238125;stroke-linecap:round"
   id="path289" />
<path
   d="m 159.55432,100.02284 0.96129,-0.05826"
   style="fill:none;stroke:#000000;stroke-width:0.238125;stroke-linecap:round"
   id="path291" />
<path
   d="m 167.81733,94.508731 -1.82489,-0.164953"
   style="fill:none;stroke:#000000;stroke-width:0.238125;stroke-linecap:round"
   id="path293" />
<path
   d="m 164.2598,104.41443 0.049,-0.85859"
   style="fill:none;stroke:#000000;stroke-width:0.238125;stroke-linecap:round"
   id="path295" />
<path
   d="m 151.98343,104.49224 12.27637,-0.0777"
   style="fill:none;stroke:#000000;stroke-width:0.238125;stroke-linecap:round"
   id="path297" />
<path
   d="m 139.70684,104.49224 h 12.27659"
   style="fill:none;stroke:#000000;stroke-width:0.238125;stroke-linecap:round"
   id="path299" />
<path
   d="m 139.65281,103.63399 0.0541,0.85825"
   style="fill:none;stroke:#000000;stroke-width:0.238125;stroke-linecap:round"
   id="path301" />
<path
   d="m 137.91627,94.43276 -1.82391,0.176516"
   style="fill:none;stroke:#000000;stroke-width:0.238125;stroke-linecap:round"
   id="path303" />
<path
   d="m 159.38311,100.38806 0.17121,-0.36522"
   style="fill:none;stroke:#000000;stroke-width:0.238125;stroke-linecap:round"
   id="path305" />
<path
   d="m 163.2477,87.312161 -0.16227,1.649933"
   style="fill:none;stroke:#000000;stroke-width:0.238125;stroke-linecap:round"
   id="path307" />
<path
   d="m 166.23438,90.883715 1.699,-0.567802"
   style="fill:none;stroke:#000000;stroke-width:0.238125;stroke-linecap:round"
   id="path309" />
</g>
<text x="662.9133858267717" y="746.5354330708662" dominant-baseline="middle" text-anchor="middle" font-size="21.25984251968504">Box 4</text>
<text x="662.9133858267717" y="667.5433070866143" dominant-baseline="middle" text-anchor="middle" font-size="17.007874015748033">DIGITAL MANUFACTURING</text>

<rect x="890.6299212598426" y="10" width="425.1968503937008" height="432.755905511811" fill="none" stroke-width="2"  stroke="black"  rx="0" ry="0" />
<rect x="928.4251968503938" y="10" width="387.40157480314963" height="37.795275590551185" fill="none" stroke-width="2"  stroke="black"  rx="0" ry="0" />
<circle cx="909.5275590551182" cy="28.897637795275593" fill="none" stroke="black" stroke-width="3" r="8.638920134983127"/>
<rect x="909.5275590551182" y="245.2755905511811" width="15.118110236220474" height="197.48031496062993" fill="none" stroke-width="2"  stroke="black"  rx="0" ry="0" />
<rect x="1281.8110236220473" y="245.2755905511811" width="15.118110236220474" height="197.48031496062993" fill="none" stroke-width="2"  stroke="black"  rx="0" ry="0" />
<rect x="970.472440944882" y="400.23622047244095" width="10.393700787401576" height="42.51968503937008" fill="none" stroke-width="2"  stroke="black"  rx="0" ry="0" />
<rect x="964.3307086614174" y="424.09448818897636" width="22.677165354330707" height="7.559055118110237" fill="none" stroke-width="2"  stroke="black"  rx="0" ry="0" />
<rect x="1225.5905511811025" y="400.23622047244095" width="10.393700787401576" height="42.51968503937008" fill="none" stroke-width="2"  stroke="black"  rx="0" ry="0" />
<rect x="1219.448818897638" y="424.09448818897636" width="22.677165354330707" height="7.559055118110237" fill="none" stroke-width="2"  stroke="black"  rx="0" ry="0" />

<rect x="890.6299212598426" y="472.99212598425197" width="425.1968503937008" height="432.755905511811" fill="none" stroke-width="2"  stroke="black"  rx="0" ry="0" />
<rect x="928.4251968503938" y="472.99212598425197" width="387.40157480314963" height="37.795275590551185" fill="none" stroke-width="2"  stroke="black"  rx="0" ry="0" />
<circle cx="909.5275590551182" cy="491.8897637795276" fill="none" stroke="black" stroke-width="3" r="8.638920134983127"/>
<rect x="909.5275590551182" y="708.2677165354331" width="15.118110236220474" height="197.48031496062993" fill="none" stroke-width="2"  stroke="black"  rx="0" ry="0" />
<rect x="1281.8110236220473" y="708.2677165354331" width="15.118110236220474" height="197.48031496062993" fill="none" stroke-width="2"  stroke="black"  rx="0" ry="0" />
<rect x="970.472440944882" y="863.228346456693" width="10.393700787401576" height="42.51968503937008" fill="none" stroke-width="2"  stroke="black"  rx="0" ry="0" />
<rect x="964.3307086614174" y="887.0866141732283" width="22.677165354330707" height="7.559055118110237" fill="none" stroke-width="2"  stroke="black"  rx="0" ry="0" />
<rect x="1225.5905511811025" y="863.228346456693" width="10.393700787401576" height="42.51968503937008" fill="none" stroke-width="2"  stroke="black"  rx="0" ry="0" />
<rect x="1219.448818897638" y="887.0866141732283" width="22.677165354330707" height="7.559055118110237" fill="none" stroke-width="2"  stroke="black"  rx="0" ry="0" />


</svg>
