<svg viewBox="850 0 1500 1500" xmlns="http://www.w3.org/2000/svg" version="1.1">
<rect x="10" y="10" width="472.4409448818898" height="614.1732283464567" fill="none" stroke-width="2"  stroke="black"  rx="0" ry="0" />
<rect x="10" y="10" width="49.60629921259843" height="36.61417322834646" fill="none" stroke-width="2"  stroke="black"  rx="0" ry="0" />
<rect x="10" y="91.49606299212599" width="49.60629921259843" height="36.61417322834646" fill="none" stroke-width="2"  stroke="black"  rx="0" ry="0" />
<rect x="432.8346456692914" y="10" width="49.60629921259843" height="36.61417322834646" fill="none" stroke-width="2"  stroke="black"  rx="0" ry="0" />
<rect x="432.8346456692914" y="91.49606299212599" width="49.60629921259843" height="36.61417322834646" fill="none" stroke-width="2"  stroke="black"  rx="0" ry="0" />

<rect x="529.6850393700788" y="10" width="472.4409448818898" height="614.1732283464567" fill="none" stroke-width="2"  stroke="black"  rx="59.05511811023622" ry="59.05511811023622" />
<circle cx="624.1732283464568" cy="69.05511811023622" fill="none" stroke="black" stroke-width="3" r="10.015748031496063"/>
<circle cx="907.6377952755906" cy="69.05511811023622" fill="none" stroke="black" stroke-width="3" r="10.015748031496063"/>
<circle cx="624.1732283464568" cy="565.1181102362204" fill="none" stroke="black" stroke-width="3" r="10.015748031496063"/>
<circle cx="907.6377952755906" cy="565.1181102362204" fill="none" stroke="black" stroke-width="3" r="10.015748031496063"/>
<circle cx="588.740157480315" cy="132.83464566929132" fill="none" stroke="black" stroke-width="3" r="10.015748031496063"/>
<circle cx="943.0708661417324" cy="132.83464566929132" fill="none" stroke="black" stroke-width="3" r="10.015748031496063"/>
<circle cx="588.740157480315" cy="501.33858267716533" fill="none" stroke="black" stroke-width="3" r="10.015748031496063"/>
<circle cx="943.0708661417324" cy="501.33858267716533" fill="none" stroke="black" stroke-width="3" r="10.015748031496063"/>

<rect x="10" y="671.4173228346456" width="472.4409448818898" height="614.1732283464568" fill="none" stroke-width="2"  stroke="black"  rx="59.05511811023622" ry="59.05511811023622" />
<rect x="99.29133858267717" y="1240.2362204724411" width="10.393700787401576" height="45.354330708661415" fill="none" stroke-width="2"  stroke="black"  rx="0" ry="0" />
<rect x="93.1496062992126" y="1262.9133858267717" width="22.677165354330707" height="7.559055118110237" fill="none" stroke-width="2"  stroke="black"  rx="0" ry="0" />
<rect x="382.755905511811" y="1240.2362204724411" width="10.393700787401576" height="45.354330708661415" fill="none" stroke-width="2"  stroke="black"  rx="0" ry="0" />
<rect x="376.6141732283465" y="1262.9133858267717" width="22.677165354330707" height="7.559055118110237" fill="none" stroke-width="2"  stroke="black"  rx="0" ry="0" />
<rect x="69.05511811023622" y="671.4173228346456" width="49.60629921259843" height="307.0866141732284" fill="none" stroke-width="2"  stroke="black"  rx="0" ry="0" />
<rect x="373.77952755905517" y="671.4173228346456" width="49.60629921259843" height="307.0866141732284" fill="none" stroke-width="2"  stroke="black"  rx="0" ry="0" />

<rect x="529.6850393700788" y="671.4173228346456" width="472.4409448818898" height="614.1732283464568" fill="none" stroke-width="2"  stroke="black"  rx="59.05511811023622" ry="59.05511811023622" />
<rect x="618.976377952756" y="1240.2362204724411" width="10.393700787401576" height="45.354330708661415" fill="none" stroke-width="2"  stroke="black"  rx="0" ry="0" />
<rect x="612.8346456692914" y="1262.9133858267717" width="22.677165354330707" height="7.559055118110237" fill="none" stroke-width="2"  stroke="black"  rx="0" ry="0" />
<rect x="902.4409448818899" y="1240.2362204724411" width="10.393700787401576" height="45.354330708661415" fill="none" stroke-width="2"  stroke="black"  rx="0" ry="0" />
<rect x="896.2992125984252" y="1262.9133858267717" width="22.677165354330707" height="7.559055118110237" fill="none" stroke-width="2"  stroke="black"  rx="0" ry="0" />
<rect x="588.740157480315" y="671.4173228346456" width="49.60629921259843" height="307.0866141732284" fill="none" stroke-width="2"  stroke="black"  rx="0" ry="0" />
<rect x="893.464566929134" y="671.4173228346456" width="49.60629921259843" height="307.0866141732284" fill="none" stroke-width="2"  stroke="black"  rx="0" ry="0" />


</svg>
